<!DOCTYPE svg PUBLIC "-//W3C//DTD SVG 1.1//EN" "http://www.w3.org/Graphics/SVG/1.1/DTD/svg11.dtd">

<!-- Uploaded to: SVG Repo, www.svgrepo.com, Transformed by: SVG Repo Mixer Tools -->
<svg width="800px" height="800px" viewBox="-1 0 26 26" version="1.1" xmlns="http://www.w3.org/2000/svg" xmlns:xlink="http://www.w3.org/1999/xlink" xmlns:sketch="http://www.bohemiancoding.com/sketch/ns" fill="#000000">

<g id="SVGRepo_bgCarrier" stroke-width="0"/>

<g id="SVGRepo_tracerCarrier" stroke-linecap="round" stroke-linejoin="round"/>

<g id="SVGRepo_iconCarrier"> <title>share</title> <desc>Created with Sketch Beta.</desc> <defs> </defs> <g id="Page-1" stroke="none" stroke-width="1" fill="none" fill-rule="evenodd" sketch:type="MSPage"> <g id="Icon-Set-Filled" sketch:type="MSLayerGroup" transform="translate(-314.000000, -728.000000)" fill="#ffffff"> <path d="M333,744 C331.23,744 329.685,744.925 328.796,746.312 L323.441,743.252 C323.787,742.572 324,741.814 324,741 C324,740.497 323.903,740.021 323.765,739.563 L329.336,736.38 C330.249,737.37 331.547,738 333,738 C335.762,738 338,735.762 338,733 C338,730.238 335.762,728 333,728 C330.238,728 328,730.238 328,733 C328,733.503 328.097,733.979 328.235,734.438 L322.664,737.62 C321.751,736.631 320.453,736 319,736 C316.238,736 314,738.238 314,741 C314,743.762 316.238,746 319,746 C320.14,746 321.179,745.604 322.02,744.962 L328.055,748.46 C328.035,748.64 328,748.814 328,749 C328,751.762 330.238,754 333,754 C335.762,754 338,751.762 338,749 C338,746.238 335.762,744 333,744" id="share" sketch:type="MSShapeGroup"> </path> </g> </g> </g>

</svg>